<svg width="28" height="36" viewBox="0 0 28 36" fill="none" xmlns="http://www.w3.org/2000/svg">
<g id="Group">
<path id="Vector" d="M8.37889 3.78954C8.37889 5.88246 6.68227 7.57908 4.58935 7.57908C2.49643 7.57908 0.799988 5.88228 0.799988 3.78954C0.799988 1.69662 2.49661 0 4.58953 0C6.68245 0 8.37889 1.69662 8.37889 3.78954Z" fill="#0C0C0C"/>
<path id="Vector_2" d="M17.8526 3.78954C17.8526 5.88246 16.156 7.57908 14.0631 7.57908C11.9702 7.57908 10.2736 5.88246 10.2736 3.78954C10.2736 1.69662 11.9702 0 14.0631 0C16.156 0 17.8526 1.69662 17.8526 3.78954Z" fill="#0C0C0C"/>
<path id="Vector_3" d="M27.3262 3.78954C27.3262 5.88246 25.6296 7.57908 23.5367 7.57908C21.4437 7.57908 19.7471 5.88246 19.7471 3.78954C19.7473 1.69662 21.4439 0 23.5367 0C25.6294 0 27.3262 1.69662 27.3262 3.78954Z" fill="#0C0C0C"/>
<path id="Vector_4" d="M8.37889 13.263C8.37889 15.356 6.68227 17.0526 4.58935 17.0526C2.49643 17.0526 0.799988 15.356 0.799988 13.263C0.799988 11.1701 2.49661 9.47351 4.58953 9.47351C6.68245 9.47351 8.37889 11.1701 8.37889 13.263Z" fill="#0C0C0C"/>
<path id="Vector_5" d="M17.8526 13.263C17.8526 15.356 16.156 17.0526 14.0631 17.0526C11.9702 17.0526 10.2736 15.356 10.2736 13.263C10.2736 11.1701 11.9702 9.47351 14.0631 9.47351C16.156 9.47351 17.8526 11.1701 17.8526 13.263Z" fill="#0C0C0C"/>
<path id="Vector_6" d="M27.3262 13.263C27.3262 15.356 25.6296 17.0526 23.5367 17.0526C21.4438 17.0526 19.7473 15.356 19.7473 13.263C19.7473 11.1701 21.4439 9.47351 23.5369 9.47351C25.6298 9.47351 27.3262 11.1701 27.3262 13.263Z" fill="#0C0C0C"/>
<path id="Vector_7" d="M8.37889 22.7367C8.37889 24.8296 6.68227 26.5262 4.58935 26.5262C2.49643 26.5262 0.799988 24.8296 0.799988 22.7367C0.799988 20.6438 2.49661 18.9471 4.58953 18.9471C6.68245 18.9471 8.37889 20.6439 8.37889 22.7367Z" fill="#0C0C0C"/>
<path id="Vector_8" d="M8.37889 32.2104C8.37889 34.3034 6.68227 36 4.58935 36C2.49643 36 0.799988 34.3034 0.799988 32.2104C0.799988 30.1175 2.49661 28.4209 4.58953 28.4209C6.68245 28.4209 8.37889 30.1175 8.37889 32.2104Z" fill="#0C0C0C"/>
<path id="Vector_9" d="M17.8526 22.7367C17.8526 24.8296 16.156 26.5262 14.0631 26.5262C11.9702 26.5262 10.2736 24.8296 10.2736 22.7367C10.2736 20.6438 11.9702 18.9471 14.0631 18.9471C16.156 18.9471 17.8526 20.6439 17.8526 22.7367Z" fill="#0C0C0C"/>
<path id="Vector_10" d="M27.3262 22.7367C27.3262 24.8296 25.6296 26.5262 23.5367 26.5262C21.4437 26.5262 19.7471 24.8296 19.7471 22.7367C19.7471 20.6438 21.4437 18.9471 23.5367 18.9471C25.6296 18.9471 27.3262 20.6439 27.3262 22.7367Z" fill="#0C0C0C"/>
</g>
</svg>
